<svg version="1.1" xmlns="http://www.w3.org/2000/svg" viewBox="0 0 500 500" width="500" height="500" class="svelte-1rpa6z8"><path d="M0 0 C1.1653125 0.51175781 2.330625 1.02351562 3.53125 1.55078125 C17.02947063 7.70628126 29.46864547 16.11696722 42 24 C43.47624546 24.91847851 44.95275891 25.83652662 46.4296875 26.75390625 C53.33369811 31.07411305 59.8016606 35.71348243 66 41 C66.83144531 41.68578125 67.66289062 42.3715625 68.51953125 43.078125 C81.68991798 54.3265659 91.72940114 69.83381235 96.125 86.625 C98.65755522 94.93494682 103.90573509 99.50746966 110.14453125 105.3125 C115.32480013 110.15030333 119.54202841 115.6082799 123.74121094 121.296875 C124.97069396 122.96034931 126.22216212 124.60527552 127.4765625 126.25 C149.37662682 155.43127127 163.02198277 190.16088796 169 226 C169.18546387 227.09006348 169.37092773 228.18012695 169.56201172 229.30322266 C171.23913891 240.28309461 171.39845897 251.1619621 171.375 262.25 C171.37418427 263.70215912 171.37418427 263.70215912 171.37335205 265.18365479 C171.22463923 322.90683414 150.11431867 378.09792279 110.49609375 420.31640625 C108.36940178 422.60284973 106.32927439 424.92987084 104.3125 427.3125 C100.85698131 431.28145661 97.0311182 434.62915116 93 438 C91.72382812 439.10794922 91.72382812 439.10794922 90.421875 440.23828125 C76.71994764 451.97476821 62.02049308 461.72314658 46 470 C45.27151855 470.3825293 44.54303711 470.76505859 43.79248047 471.15917969 C12.35755056 487.50729442 -22.56065749 495.39785358 -57.85229492 495.31567383 C-60.66690213 495.31252306 -63.48044415 495.33604324 -66.29492188 495.36132812 C-83.36671738 495.42182779 -99.98559151 493.38925035 -116.5625 489.25 C-117.61002441 488.99033447 -118.65754883 488.73066895 -119.73681641 488.46313477 C-156.80340472 479.01760576 -190.45606434 460.64050259 -218.31640625 434.49609375 C-220.60284973 432.36940178 -222.92987084 430.32927439 -225.3125 428.3125 C-229.28145661 424.85698131 -232.62915116 421.0311182 -236 417 C-237.10794922 415.72382812 -237.10794922 415.72382812 -238.23828125 414.421875 C-249.97476821 400.71994764 -259.72314658 386.02049308 -268 370 C-268.3825293 369.27151855 -268.76505859 368.54303711 -269.15917969 367.79248047 C-285.94445403 335.51695935 -293.46001104 300.04044817 -293.3125 263.875 C-293.31034485 262.92401428 -293.3081897 261.97302856 -293.30596924 260.9932251 C-293.25552529 247.12522027 -292.89617502 233.60916026 -290 220 C-289.80132324 219.02579102 -289.60264648 218.05158203 -289.39794922 217.04785156 C-281.77243 180.38823933 -266.25982966 147.2991964 -243 118 C-242.5678418 117.45069824 -242.13568359 116.90139648 -241.69042969 116.33544922 C-235.20698985 108.16209652 -227.99109117 100.82819189 -220.45654297 93.61767578 C-215.85674458 89.14522844 -212.10017685 84.55536586 -208.5234375 79.22973633 C-206.73927864 76.61840253 -204.73321804 74.29208068 -202.625 71.9375 C-194.72121676 62.38318138 -189.80539106 50.99730926 -184.9375 39.6875 C-177.69594475 22.9491163 -167.74367343 10.75010971 -151 3 C-146.72541193 1.32582761 -142.46437562 0.06000879 -138 -1 C-136.67742187 -1.31904297 -136.67742187 -1.31904297 -135.328125 -1.64453125 C-115.73022687 -5.58110327 -94.67841842 -4.09602971 -74.79882812 -3.96337891 C-65.64818958 -3.91377379 -56.61727121 -4.04985646 -47.49023438 -4.75097656 C-14.70544693 -7.0901262 -14.70544693 -7.0901262 0 0 Z " fill="#353433" transform="translate(311,5)"></path><path d="M0 0 C6.05605566 0.48887434 10.78993867 3.14056545 16.0625 5.9375 C16.99698975 6.43185547 17.93147949 6.92621094 18.89428711 7.43554688 C26.62224048 11.61982382 33.36031423 16.24027259 40 22 C40.51353027 22.4434375 41.02706055 22.886875 41.55615234 23.34375 C68.83377689 47.07368226 88.71838579 80.5080626 92 117 C92.14919918 120.98184584 92.1570699 124.96097021 92.16113281 128.9453125 C92.16609772 130.12046921 92.17106262 131.29562592 92.17617798 132.50639343 C92.19073523 136.37926835 92.19759187 140.25210226 92.203125 144.125 C92.20586464 145.46812972 92.20872133 146.8112592 92.21169281 148.15438843 C92.22534633 154.47085636 92.23502212 160.78731149 92.2388947 167.10379314 C92.24336321 174.3488202 92.26086371 181.59365745 92.2898953 188.83862686 C92.31165752 194.46871943 92.32160674 200.09875919 92.32293582 205.72889328 C92.32397401 209.07728953 92.33116213 212.42536604 92.34775543 215.77374268 C92.41088226 229.49449894 92.44410087 242.64648806 89 256 C88.76853271 256.90177979 88.53706543 257.80355957 88.29858398 258.73266602 C87.72960897 260.83340594 87.08283697 262.87973482 86.375 264.9375 C86.12411621 265.67492432 85.87323242 266.41234863 85.61474609 267.17211914 C79.49618293 284.3534098 69.4528221 298.79514246 57 312 C56.38769531 312.67675781 55.77539062 313.35351562 55.14453125 314.05078125 C35.21731229 335.25266241 3.35362075 348.35413543 -25.53125 349.3359375 C-62.04899004 349.81215402 -93.44586045 338.55845102 -120.09204102 313.30859375 C-139.47195071 294.35960239 -155.52009622 265.56711439 -156.25396729 237.97756958 C-156.26566414 236.18967377 -156.26676061 234.40168583 -156.25878906 232.61376953 C-156.2622937 231.62650375 -156.26579834 230.63923798 -156.26940918 229.62205505 C-156.27816555 226.37556789 -156.27238697 223.12930171 -156.265625 219.8828125 C-156.26697616 217.58438069 -156.26892042 215.28594916 -156.27142334 212.98751831 C-156.27436877 208.16092213 -156.27010588 203.33440003 -156.26074219 198.5078125 C-156.24951307 192.4345658 -156.25597783 186.36149767 -156.26764679 180.2882576 C-156.31107275 153.46105262 -155.97828984 126.76136113 -154 100 C-146.36145468 97.8013921 -146.36145468 97.8013921 -143.046875 97.140625 C-104.75834526 89.23747976 -69.29076866 73.03834599 -40 47 C-39.00871094 46.13117188 -38.01742187 45.26234375 -36.99609375 44.3671875 C-31.5669101 39.53632205 -26.647891 34.5755163 -22 29 C-21.18015625 28.06800781 -20.3603125 27.13601562 -19.515625 26.17578125 C-12.28770819 17.9153049 -6.06583197 9.13981258 0 0 Z " fill="#F6D3D3" transform="translate(282,87)"></path><path d="M0 0 C0.85239258 0.46631836 1.70478516 0.93263672 2.58300781 1.41308594 C35.33864078 19.60268716 69.94087301 39.25657689 81.375 77.1875 C84.88830126 89.97657327 85.40312563 102.71236174 85.375 115.875 C85.37512085 116.74728241 85.3752417 117.61956482 85.37536621 118.51828003 C85.33320156 140.05191469 82.38312104 160.73245007 78.50317383 181.89770508 C74.4750643 204.62648543 72.79755129 227.86622023 70.95092773 250.85644531 C70.89369537 251.56106903 70.83646301 252.26569275 70.77749634 252.9916687 C70.62433589 254.88666277 70.47474858 256.78194469 70.32543945 258.67724609 C70.01762912 261.82000575 69.55942219 264.89315081 69 268 C68.67 268 68.34 268 68 268 C67.99635437 267.06579727 67.99270874 266.13159454 67.98895264 265.16908264 C67.95156033 256.24397405 67.89332338 247.3191965 67.81609726 238.39434147 C67.77705245 233.80902507 67.74465854 229.22388838 67.72900391 224.63842773 C67.55616299 177.46357496 60.54153609 136.00542424 29 99 C28.30390625 98.16984375 27.6078125 97.3396875 26.890625 96.484375 C21.47376861 90.22233535 15.55880769 85.03606353 9 80 C8.17113281 79.34386719 7.34226562 78.68773438 6.48828125 78.01171875 C-3.66497516 70.2529516 -15.17174259 63.83456553 -27 59 C-25.56347895 54.08558588 -23.45840385 49.99761642 -20.875 45.625 C-20.50246094 44.98433594 -20.12992188 44.34367187 -19.74609375 43.68359375 C-18.83565998 42.11951523 -17.91851809 40.55934466 -17 39 C-14.28674973 41.61297798 -11.97252746 44.27540543 -9.75 47.3125 C0.33820833 60.31036 15.57910631 69.15729065 31.97558594 71.25244141 C35.97819997 71.65851774 39.97967096 71.87780155 44 72 C44 69.69 44 67.38 44 65 C43.20078125 65.03480469 42.4015625 65.06960937 41.578125 65.10546875 C25.0091489 65.51385901 12.36245521 60.70258091 0.29296875 49.3046875 C-9.8473496 39.11254469 -9.8473496 39.11254469 -12 34 C-11.8133672 29.52081279 -10.37988562 26.72503836 -8 23 C-8 22.34 -8 21.68 -8 21 C-9.98 20.01 -9.98 20.01 -12 19 C-16.81852156 26.48624709 -21.06960529 34.26573965 -25.33789062 42.07397461 C-37.04759459 63.46922547 -51.30540939 82.2557495 -68 100 C-68.65484375 100.70898438 -69.3096875 101.41796875 -69.984375 102.1484375 C-100.58418239 134.18669737 -148.41651011 154.62513358 -192 159 C-192.03425331 159.84112083 -192.03425331 159.84112083 -192.06919861 160.69923401 C-192.3084012 166.55593732 -192.55256513 172.4124191 -192.79956055 178.26879883 C-192.89099312 180.45201452 -192.98117707 182.63528288 -193.07006836 184.81860352 C-193.1983435 187.96385269 -193.33116525 191.10888265 -193.46484375 194.25390625 C-193.52272316 195.70900352 -193.52272316 195.70900352 -193.58177185 197.1934967 C-193.74608959 200.97777329 -193.94806387 204.65579971 -194.51367188 208.40429688 C-195.22814486 213.68680597 -195.23716932 218.95213953 -195.31640625 224.27734375 C-195.33718735 225.4438295 -195.35796844 226.61031525 -195.37937927 227.81214905 C-195.44450911 231.52054224 -195.50358917 235.22900332 -195.5625 238.9375 C-195.60572001 241.45899126 -195.6493354 243.98047577 -195.69335938 246.50195312 C-195.80015284 252.66789799 -195.9019857 258.83390967 -196 265 C-196.66 264.67 -197.32 264.34 -198 264 C-198.4793396 262.10076904 -198.4793396 262.10076904 -198.80615234 259.57324219 C-198.93338181 258.62480438 -199.06061127 257.67636658 -199.19169617 256.69918823 C-199.32179581 255.65892487 -199.45189545 254.6186615 -199.5859375 253.546875 C-199.72767899 252.47220978 -199.86942047 251.39754456 -200.01545715 250.29031372 C-200.47692865 246.77790382 -200.92584274 243.26400381 -201.375 239.75 C-201.68952073 237.3437831 -202.00503266 234.93769556 -202.3215332 232.53173828 C-202.94269413 227.80388301 -203.55991695 223.07554506 -204.17333984 218.34667969 C-205.14710689 210.85175841 -206.15355722 203.36185827 -207.1875 195.875 C-207.41626831 194.21343872 -207.41626831 194.21343872 -207.6496582 192.51831055 C-208.7156315 184.85493578 -209.87486505 177.20786497 -211.0625 169.5625 C-211.39203916 167.41928806 -211.72146874 165.27605927 -212.05078125 163.1328125 C-212.51186924 160.13315548 -212.97799195 157.13499807 -213.46630859 154.13964844 C-218.07228821 125.86640272 -219.10944409 97.47225721 -202.234375 72.984375 C-199.96271538 69.95020026 -197.55032796 67.10868431 -195.0625 64.25 C-186.80131839 54.49826881 -181.49301033 43.32437646 -176.375 31.6875 C-169.65594848 16.44058744 -162.1259406 4.33949533 -146 -2 C-137.64529071 -4.75417313 -129.50212258 -6.10083237 -120.69458008 -6.18945312 C-119.65394409 -6.20189308 -119.65394409 -6.20189308 -118.59228516 -6.21458435 C-117.09733564 -6.23187172 -115.60236075 -6.24706843 -114.10737038 -6.26036072 C-111.73009813 -6.28160235 -109.35295034 -6.30860963 -106.97575378 -6.33703613 C-101.92138534 -6.39644789 -96.86695607 -6.44866925 -91.8125 -6.5 C-85.96669096 -6.55959415 -80.12094253 -6.6222494 -74.27524376 -6.69187927 C-71.95352063 -6.7180842 -69.63178999 -6.7391234 -67.31001282 -6.7598877 C-60.04312325 -6.83739584 -52.83269768 -7.05910336 -45.59295654 -7.75413513 C-28.52945398 -9.37210124 -15.10508548 -8.33615335 0 0 Z " fill="#543834" transform="translate(314,22)"></path><path class="background svelte-1rpa6z8" d="M0 0 C3.64967093 3.48818106 6.76902987 7.12237311 9.6875 11.25 C10.11538818 11.85497314 10.54327637 12.45994629 10.98413086 13.08325195 C25.13704454 33.42693401 34.9267969 55.29715493 42 79 C42.22558594 79.75458496 42.45117188 80.50916992 42.68359375 81.28662109 C52.70565013 115.97898455 50.79426156 153.38354412 42 188 C41.69191406 189.25296875 41.38382812 190.5059375 41.06640625 191.796875 C33.1385498 221.81702476 17.38276585 249.71777488 -3 273 C-3.62132561 273.79698051 -3.62132561 273.79698051 -4.25520325 274.61006165 C-6.76078859 276.60605869 -8.58055548 276.36089197 -11.7565918 276.34057617 C-12.93758957 276.34034958 -14.11858734 276.34012299 -15.33537292 276.33988953 C-16.61044205 276.32440567 -17.88551117 276.30892181 -19.19921875 276.29296875 C-21.15720146 276.28660149 -21.15720146 276.28660149 -23.15473938 276.28010559 C-26.62205279 276.26866089 -30.08898813 276.23919754 -33.55615234 276.20599365 C-37.09532558 276.17528433 -40.63456001 276.16159845 -44.17382812 276.14648438 C-51.11604055 276.11432705 -58.05800211 276.06313554 -65 276 C-63.29967157 272.37625547 -61.23653147 270.00725776 -58.4375 267.125 C-37.36612647 244.58682602 -28.90979138 214.82001659 -25 185 C-23.98292969 184.67128906 -23.98292969 184.67128906 -22.9453125 184.3359375 C-10.43127799 180.07215289 -0.71117931 174.53160335 5.34765625 162.2734375 C7.46207677 157.13516827 9.09537569 152.28130127 9.19287109 146.69726562 C9.20893402 145.85538696 9.22499695 145.0135083 9.24154663 144.14611816 C9.2865044 140.28362198 9.32710541 136.42129147 9.35009766 132.55859375 C9.36658356 130.53373665 9.39377502 128.50893595 9.43212891 126.484375 C9.71779879 111.30164179 9.04343459 98.61219517 -2 87 C-2.88389404 86.41508789 -2.88389404 86.41508789 -3.78564453 85.81835938 C-5.8971166 84.34248081 -7.45557872 83.0694706 -9 81 C-9.52637237 77.2844758 -8.83689488 73.90875944 -8.125 70.25 C-7.9587915 69.22938477 -7.79258301 68.20876953 -7.62133789 67.15722656 C-7.11638682 64.09740948 -6.56266202 61.04965863 -6 58 C-5.5935198 55.6423236 -5.19704124 53.28315773 -4.80175781 50.92358398 C-4.55806916 49.46945524 -4.31130203 48.01583919 -4.06152344 46.56274414 C-1.44749723 31.13895492 -0.59035601 15.61336289 0 0 Z " fill="#FD6B03" transform="translate(413,134)"></path><path class="background svelte-1rpa6z8" d="M0 0 C0.33 0 0.66 0 1 0 C1.04898438 1.30453125 1.09796875 2.6090625 1.1484375 3.953125 C1.54046666 13.46484653 2.22040148 22.6367529 4 32 C4.49941165 34.95515425 4.97036861 37.91458876 5.4375 40.875 C5.62542114 42.06561035 5.62542114 42.06561035 5.81713867 43.28027344 C6.83181295 49.78291718 7.77906996 56.29420186 8.6875 62.8125 C8.81890381 63.73724121 8.95030762 64.66198242 9.08569336 65.61474609 C10.7771811 77.96749139 10.7771811 77.96749139 8.64453125 80.80078125 C7.73767578 81.54908203 7.73767578 81.54908203 6.8125 82.3125 C-0.12401333 88.67447384 -4.96346839 98.28856054 -5.40405273 107.75683594 C-5.43031319 109.49917889 -5.43938365 111.24184378 -5.43359375 112.984375 C-5.4388356 113.92122131 -5.44407745 114.85806763 -5.44947815 115.82330322 C-5.4558705 117.79658015 -5.45459769 119.76989532 -5.44604492 121.74316406 C-5.43756274 124.72792176 -5.46629092 127.71074463 -5.49804688 130.6953125 C-5.55632599 146.09476253 -3.7590455 158.19855563 7 170 C11.95063458 174.48390809 16.97722708 177.16629211 23.328125 179.19140625 C24.39450195 179.53502197 25.46087891 179.8786377 26.55957031 180.23266602 C27.36491211 180.48588623 28.17025391 180.73910645 29 181 C29.14248169 182.01030273 29.14248169 182.01030273 29.2878418 183.04101562 C33.7855895 214.36776165 43.23320896 244.95774079 66.625 267.6875 C67.800625 268.8321875 67.800625 268.8321875 69 270 C69 270.66 69 271.32 69 272 C61.4810381 272.25617342 53.96253412 272.45096265 46.44018745 272.56993389 C42.94584956 272.62707542 39.45452002 272.70438989 35.96191406 272.82983398 C31.93527447 272.97353443 27.91173337 273.02581131 23.8828125 273.07421875 C22.64387238 273.13099289 21.40493225 273.18776703 20.12844849 273.2462616 C14.72222413 273.25006662 11.34284618 273.0732433 7.0304718 269.62666321 C4.483544 266.85598065 2.21035926 264.04337383 0 261 C-0.90386444 259.8375325 -0.90386444 259.8375325 -1.82598877 258.65158081 C-3.30427632 256.74486999 -4.69194963 254.79783802 -6.0625 252.8125 C-6.56434814 252.0911084 -7.06619629 251.3697168 -7.58325195 250.62646484 C-16.54625386 237.53931229 -23.52409367 223.45163657 -30 209 C-30.48339844 207.9275 -30.96679688 206.855 -31.46484375 205.75 C-51.46616492 157.69570761 -49.62506806 99.07346123 -30.02001953 51.40234375 C-22.626104 33.98823919 -13.62452625 13.62452625 0 0 Z " fill="#FD6B03" transform="translate(83,138)"></path><path d="M0 0 C4.32680531 1.37908749 8.45146987 3.02720889 12.625 4.8125 C46.74774688 18.90686749 82.36033684 16.21641312 116.09423828 2.74072266 C118.69794694 1.72872521 121.34053803 0.85287643 124 0 C123.39781085 12.04378309 118.30139403 21.60313863 111 31 C110.52820313 31.63679688 110.05640625 32.27359375 109.5703125 32.9296875 C100.44331732 44.53180001 85.18942158 51.31785324 71 54 C52.66073957 55.90459425 35.87968539 51.10314735 21.1875 39.8125 C10.66016758 30.68054301 3.00670273 18.66683059 0 5 C-0.125 2.0625 -0.125 2.0625 0 0 Z " fill="#F5D2D2" transform="translate(188,428)"></path><path d="M0 0 C6.05706487 0.48895581 10.78842496 3.14195203 16.0625 5.9375 C16.98828857 6.42387939 17.91407715 6.91025879 18.86791992 7.41137695 C26.56873022 11.55982391 33.35555898 16.31709219 40 22 C36.56028854 23.14657049 36.11134248 22.85413355 32.875 21.625 C25.45487857 19.20683543 17.73657721 19.26027928 10 19 C9.72285156 19.88300781 9.44570313 20.76601562 9.16015625 21.67578125 C5.73178331 31.49916634 -0.26625082 39.20687255 -7 47 C-7.53753906 47.66 -8.07507813 48.32 -8.62890625 49 C-38.57540317 85.55594174 -93.39899691 99.65318103 -137.6875 106.875 C-138.42274902 106.99528564 -139.15799805 107.11557129 -139.91552734 107.23950195 C-144.65382025 107.95195666 -149.20891077 108.09678968 -154 108 C-154 105.36 -154 102.72 -154 100 C-149.67406641 98.70901458 -145.37227397 97.6206112 -140.95214844 96.70825195 C-103.46600596 88.90764337 -68.63778457 72.4578687 -40 47 C-39.00871094 46.13117188 -38.01742187 45.26234375 -36.99609375 44.3671875 C-31.5669101 39.53632205 -26.647891 34.5755163 -22 29 C-21.18015625 28.06800781 -20.3603125 27.13601562 -19.515625 26.17578125 C-12.28770819 17.9153049 -6.06583197 9.13981258 0 0 Z " fill="#E4C4C4" transform="translate(282,87)"></path><path d="M0 0 C8.89274825 -0.11600884 17.78523481 -0.20477287 26.67857552 -0.25906086 C30.80845044 -0.28512069 34.93780649 -0.32045125 39.06738281 -0.37719727 C43.05503287 -0.43164817 47.04218485 -0.46144772 51.03017807 -0.47438622 C52.54923211 -0.48360284 54.06825982 -0.50160138 55.58710098 -0.52865028 C57.72028073 -0.56511834 59.85142043 -0.56993851 61.98486328 -0.56762695 C63.1973172 -0.57873001 64.40977112 -0.58983307 65.65896606 -0.60127258 C70.16879147 0.21034275 71.79316287 1.75960343 75 5 C76.03125 8.0234375 76.03125 8.0234375 76.5 11.375 C79.45052813 27.74013859 86.88859363 39.87388334 98.1796875 51.96875 C100 54 100 54 101 56 C94.74403566 55.42341342 89.19049224 54.01684068 83.25 52 C82.33895508 51.69167236 81.42791016 51.38334473 80.48925781 51.06567383 C54.59974933 42.07663301 31.05087898 28.31586158 10.1875 10.5625 C9.61878174 10.07861816 9.05006348 9.59473633 8.46411133 9.09619141 C5.2579381 6.29632485 2.61442327 3.34678416 0 0 Z " fill="#3B6AC6" transform="translate(99,422)"></path><path d="M0 0 C1.01080879 -0.0010952 1.01080879 -0.0010952 2.04203796 -0.00221252 C4.25038601 0.00124718 6.45657532 0.04002407 8.66455078 0.0793457 C10.20296069 0.08867977 11.74138554 0.09579308 13.27981567 0.1007843 C17.31450974 0.11980791 21.34829327 0.16886691 25.38262939 0.2243042 C29.50512375 0.27559795 33.62776629 0.29831983 37.75048828 0.32348633 C45.82902955 0.37699173 53.90683291 0.46224638 61.98486328 0.56762695 C61.04264845 1.68162791 60.09830142 2.79382567 59.15307617 3.90527344 C58.62742569 4.52482407 58.10177521 5.14437469 57.56019592 5.78269958 C33.81915921 32.68243178 -6.60555487 50.3314943 -41.01513672 57.56762695 C-40.26876953 56.82512695 -39.52240234 56.08262695 -38.75341797 55.31762695 C-26.22802668 42.73863199 -15.13070026 27.1463615 -13.72998047 8.84106445 C-12.92403462 5.15044906 -11.68690875 3.9007254 -8.75794601 1.60383034 C-5.87016476 -0.11312671 -3.31237973 -0.03033315 0 0 Z " fill="#3B6AC6" transform="translate(339.01513671875,421.432373046875)"></path><path d="M0 0 C4.32680531 1.37908749 8.45146987 3.02720889 12.625 4.8125 C46.74774688 18.90686749 82.36033684 16.21641312 116.09423828 2.74072266 C118.69794694 1.72872521 121.34053803 0.85287643 124 0 C123.58898182 6.12275363 122.84466048 11.50686253 120 17 C118.01408223 17.40895196 116.00912245 17.72698336 114 18 C112.14290702 18.6546152 110.28647605 19.31256639 108.44848633 20.01904297 C77.51506267 31.85627679 44.37589876 31.09840471 13.6015625 19.26953125 C10.3610015 18.12725107 7.39812759 17.43660153 4 17 C3.32389577 15.10751181 2.65949561 13.2108398 2 11.3125 C1.62875 10.25675781 1.2575 9.20101563 0.875 8.11328125 C0.0608143 5.21637944 -0.17709796 2.98299377 0 0 Z " fill="#E4C4C4" transform="translate(188,428)"></path><path d="M0 0 C4.75 0.875 4.75 0.875 7 2 C7 4.97 7 7.94 7 11 C11.24123736 12.59602785 14.79561507 13.20771268 19.3125 13.3125 C24.94801693 13.64626638 28.35798783 14.95674197 33.08984375 17.90234375 C36.00540253 19.57774665 37.71385957 19.68461259 41 19 C42.32733714 18.23346985 43.63811927 17.43802034 44.9375 16.625 C50.23834589 13.42278252 55.61553199 12.97395189 61.64453125 12.359375 C65.13762666 12.06323269 65.13762666 12.06323269 69 11 C69 8.03 69 5.06 69 2 C73 0 73 0 76 0 C77.68042411 3.36084821 76.94166601 7.07930547 76.75 10.75 C76.70939453 11.94882812 76.70939453 11.94882812 76.66796875 13.171875 C76.35645256 19.28161193 75.21835076 23.78164924 70.75 28.25 C66.07385903 31.22572607 61.56425423 31.99204781 56.125 32.3125 C52.2035186 32.6214652 49.72286958 33.50760074 46.375 35.5625 C42.79301072 37.71797776 40.20898872 38.76360321 36.0078125 38.5 C33.63342234 37.90871218 31.95294421 36.91317206 29.875 35.625 C24.89912637 32.54428519 20.08895512 32.08450541 14.33203125 31.5546875 C9.44184194 30.74061144 6.21808202 29.21601045 2.703125 25.70703125 C-1.45592111 19.09643731 -1.43360143 9.66029186 -1 2 C-0.67 1.34 -0.34 0.68 0 0 Z " fill="#E4C4C4" transform="translate(212,300)"></path><path d="M0 0 C7.08185598 3.33263811 10.7420155 9.66177032 13.35574341 16.78770447 C14.38292884 20.31492913 14.42933348 23.68722685 14.3984375 27.33984375 C14.40130768 28.10623672 14.40417786 28.8726297 14.40713501 29.6622467 C14.40916226 31.27150213 14.4037269 32.88078296 14.39111328 34.48999023 C14.3750616 36.92814295 14.39099535 39.36463281 14.41015625 41.80273438 C14.425349 53.27641898 13.65182835 63.11113545 5.24609375 71.81640625 C0.09839279 76.64174629 -4.7695846 79.73559904 -12 80.1875 C-12.99 80.0946875 -12.99 80.0946875 -14 80 C-14.21191406 77.70141602 -14.21191406 77.70141602 -14 75 C-12.53027344 73.37475586 -12.53027344 73.37475586 -10.609375 71.77734375 C-4.94167202 65.66872429 -5.60775634 57.44218664 -5.25 49.5625 C-5.1005443 47.07153077 -4.93939903 44.58148572 -4.77780151 42.09127808 C-4.67088199 40.431293 -4.56761961 38.77106825 -4.4680481 37.11062622 C-4.02785417 29.87014529 -3.28139872 22.6982255 -2.375 15.5 C-2.25157227 14.49396729 -2.12814453 13.48793457 -2.00097656 12.45141602 C-1.47231827 8.25985868 -0.86071949 4.13803929 0 0 Z " fill="#F1CFCF" transform="translate(396,226)"></path><path d="M0 0 C5.66309719 3.05807248 8.75235003 6.75705008 10.8125 12.9375 C11.41743596 18.94032609 10.800573 23.57957599 7.8125 28.9375 C4.1281382 33.20360314 0.46608211 36.49409055 -5.203125 37.44140625 C-12.1013617 37.56637431 -16.87346898 37.05015601 -22.375 32.69140625 C-27.02194529 28.19468549 -28.42445485 24.56844839 -28.8125 18.0625 C-28.56454739 11.67172155 -26.68983851 7.46757366 -22.1875 2.9375 C-14.93067534 -2.75569946 -8.37093517 -3.7272951 0 0 Z " fill="#FCFBFB" transform="translate(320.1875,217.0625)"></path><path d="M0 0 C4.03102721 2.5239644 7.03181985 6.10660846 9.15234375 10.34765625 C9.80925184 18.04748059 10.05158406 24.15914217 5.15234375 30.34765625 C0.37123634 35.11628035 -3.45080424 36.51312316 -10.16015625 36.66015625 C-15.61380742 36.60568027 -18.76147624 36.22952726 -22.84765625 32.34765625 C-27.31068408 27.77179907 -29.59355509 23.93101802 -30.22265625 17.53515625 C-30.04527683 11.99465778 -27.96581106 7.61639078 -24.19921875 3.58203125 C-16.62052599 -3.23548276 -9.32481985 -4.44722177 0 0 Z " fill="#FCFBFB" transform="translate(197.84765625,217.65234375)"></path><path d="M0 0 C0.54323466 3.860996 1.08497916 7.72219101 1.62426758 11.58374023 C2.08443803 14.87817711 2.54985327 18.17181992 3.01831055 21.46508789 C4.04406233 28.72734638 5.04413617 35.97215052 5.71875 43.27734375 C6.71860869 53.87259434 7.70498938 61.85831066 14.35546875 70.4140625 C16.32455287 73.51034205 16.3221574 75.39817464 16 79 C8.0349902 78.79718725 2.77578947 76.67742221 -2.94921875 71.1015625 C-10.08882326 63.28841039 -12.13263138 56.4329265 -12.23828125 45.98828125 C-12.246353 45.22001511 -12.25442474 44.45174896 -12.26274109 43.66020203 C-12.27653079 42.03724387 -12.28727566 40.41425733 -12.29516602 38.79125977 C-12.30666002 37.14761733 -12.32707099 35.50401145 -12.35668945 33.8605957 C-12.56082505 22.51453379 -12.63312058 12.14684729 -4.3125 3.375 C-3.71050781 2.72273437 -3.10851562 2.07046875 -2.48828125 1.3984375 C-1 0 -1 0 0 0 Z " fill="#F1CFCF" transform="translate(102,227)"></path><path d="M0 0 C1.65 0.33 3.3 0.66 5 1 C5.33 1.99 5.66 2.98 6 4 C0.14500959 14.95934103 -8.57299029 24.56649792 -16.91015625 33.6875 C-18.68356841 35.64985514 -20.38150245 37.64661409 -22.0625 39.6875 C-24.75485639 42.85323773 -27.7384606 45.5277726 -30.90625 48.2109375 C-32.24394517 49.35396808 -33.55942847 50.52387157 -34.84375 51.7265625 C-60.42207544 75.57936599 -94.8609159 94.112557 -129 102 C-129.33 99.69 -129.66 97.38 -130 95 C-129.34330322 94.79020508 -128.68660645 94.58041016 -128.01000977 94.36425781 C-98.43676139 84.80450355 -71.06610392 71.86844142 -47 52 C-46.42942871 51.53094238 -45.85885742 51.06188477 -45.27099609 50.57861328 C-27.52732861 35.90270832 -12.77669449 19.16504174 0 0 Z " fill="#333332" transform="translate(282,41)"></path><path d="M0 0 C4.88218898 0.68871004 9.42659339 1.93815244 14.125 3.375 C48.460647 13.65011751 82.1409469 12.33740087 115.81201172 0.5949707 C118 0 118 0 122 0 C122.495 2.97 122.495 2.97 123 6 C103.08986806 13.94287178 83.7514893 18.42195758 62.1875 18.25 C61.48178864 18.24656586 60.77607727 18.24313171 60.04898071 18.23959351 C38.75342184 18.11807002 18.43186393 15.11474656 -1 6 C-0.67 4.02 -0.34 2.04 0 0 Z " fill="#3B3939" transform="translate(189,353)"></path><path d="M0 0 C1.32 0.66 2.64 1.32 4 2 C4 6 4 6 2.41015625 8.12109375 C-9.61508563 19.98626585 -23.20081375 29.88506764 -38 38 C-38.92449951 38.51554443 -38.92449951 38.51554443 -39.86767578 39.04150391 C-47.92770017 43.48776639 -56.16096721 46.97013522 -64.875 49.9375 C-65.7304541 50.23221191 -66.5859082 50.52692383 -67.46728516 50.83056641 C-73.29646405 52.72778321 -78.88541728 53.62914754 -85 54 C-85 51.69 -85 49.38 -85 47 C-84.04222656 46.78085938 -83.08445313 46.56171875 -82.09765625 46.3359375 C-50.3188439 38.86783582 -23.13503742 23.13503742 0 0 Z " fill="#333333" transform="translate(262,40)"></path><path d="M0 0 C4.75 0.875 4.75 0.875 7 2 C7 4.97 7 7.94 7 11 C11.24123736 12.59602785 14.79561507 13.20771268 19.3125 13.3125 C24.94801693 13.64626638 28.35798783 14.95674197 33.08984375 17.90234375 C36.00540253 19.57774665 37.71385957 19.68461259 41 19 C42.32733714 18.23346985 43.63811927 17.43802034 44.9375 16.625 C50.23834589 13.42278252 55.61553199 12.97395189 61.64453125 12.359375 C65.13762666 12.06323269 65.13762666 12.06323269 69 11 C69 8.03 69 5.06 69 2 C73 0 73 0 76 0 C77.59781534 3.19563068 77.36841911 6.5234633 77 10 C75.21283447 14.13869913 72.74589634 16.53111378 69 19 C64.80532049 20.59397821 60.99671317 21.07944315 56.5625 21.3125 C52.55047242 21.59673084 50.19951116 22.21173892 46.9375 24.5625 C43.11188445 27.24043089 40.13857013 27.72310697 35.5 27.50390625 C31.949834 26.78832592 29.38095783 25.07926879 26.34765625 23.1640625 C22.86284759 21.43615404 19.54839799 21.49043454 15.71484375 21.296875 C10.25227446 20.69952929 5.70187404 18.40404609 1.5 14.9375 C-1.65429078 10.86320774 -1.1558209 6.90835837 -1 2 C-0.67 1.34 -0.34 0.68 0 0 Z " fill="#3A3939" transform="translate(212,300)"></path><path d="M0 0 C0.78310547 0.00644531 1.56621094 0.01289063 2.37304688 0.01953125 C14.32100006 0.39076773 23.79383446 5.21665672 32.3125 13.5 C34.60546875 16.07421875 34.60546875 16.07421875 36.3125 18.5 C36.0625 21.3125 36.0625 21.3125 35.3125 23.5 C33.01953125 23.73046875 33.01953125 23.73046875 30.3125 23.5 C28.57421875 21.92578125 28.57421875 21.92578125 27 19.8125 C22.16354274 13.8720688 16.70328044 10.52133393 9.3125 8.5 C-3.25462796 7.49723435 -12.78248424 8.5752601 -22.75390625 16.71484375 C-24.87390965 18.57013101 -24.87390965 18.57013101 -26.9375 21.4375 C-28.6875 23.5 -28.6875 23.5 -31.4375 23.8125 C-32.18 23.709375 -32.9225 23.60625 -33.6875 23.5 C-34.99899433 19.09276906 -34.99899433 19.09276906 -33.640625 16.5078125 C-24.69979649 6.62368557 -13.49771887 -0.11747362 0 0 Z " fill="#3B3A3A" transform="translate(310.6875,192.5)"></path><path d="M0 0 C0.81855469 0.4021875 1.63710937 0.804375 2.48046875 1.21875 C8.60777139 4.55585885 14.44897509 8.86835038 18 15 C17.70703125 17.77734375 17.70703125 17.77734375 17 20 C14.70703125 20.23046875 14.70703125 20.23046875 12 20 C10.26171875 18.42578125 10.26171875 18.42578125 8.6875 16.3125 C4.0768863 10.63712584 -2.42944229 5.74628793 -9.89160156 4.74658203 C-20.48729468 3.97994959 -29.04119299 4.71546374 -38 11 C-40.9614968 13.45757422 -40.9614968 13.45757422 -43 16 C-45 18.375 -45 18.375 -47 20 C-49.75 19.75 -49.75 19.75 -52 19 C-52 14.46124712 -50.59197426 12.16967126 -47.5625 9 C-35.07211387 -2.66365216 -16.02479935 -7.96713188 0 0 Z " fill="#3A3939" transform="translate(205,196)"></path><path d="M0 0 C4.77884478 2.43627381 7.5270844 5.24439308 10 10 C10.651794 13.91076402 10.21019695 15.59577511 8.375 19.125 C5.71097606 22.34987109 3.79643391 24.20922929 0 26 C-4.92725247 26.43526965 -8.07193984 25.75034651 -11.9375 22.625 C-15.10548598 18.59301784 -16.46071821 16.29621372 -16.31640625 11.0625 C-15.63415419 6.61522729 -13.07168345 3.86893253 -9.6875 1.125 C-6.16108808 -0.35117243 -3.79611 -0.46618895 0 0 Z " fill="#393939" transform="translate(191,222)"></path><path d="M0 0 C3.29110633 2.10070617 4.8333853 3.75007795 7 7 C7.75382467 11.60183667 7.39969844 15.1698571 5.375 19.375 C1.97464693 23.13328497 -0.9916243 24.70711188 -6 25.4375 C-10.81389468 24.73547369 -13.75096912 22.4572027 -16.875 18.8125 C-18.48123136 14.79692159 -18.80996194 11.25979982 -18 7 C-13.90133427 -0.67686597 -7.87856519 -1.9696413 0 0 Z " fill="#383737" transform="translate(317,223)"></path></svg>